<svg width="14" height="14" viewBox="0 0 14 14" fill="none" xmlns="http://www.w3.org/2000/svg">
<path d="M9.625 9.1875C9.5375 9.1875 9.45 9.14375 9.3625 9.1L6.7375 7.35C6.65 7.2625 6.5625 7.13125 6.5625 7V2.625C6.5625 2.3625 6.7375 2.1875 7 2.1875C7.2625 2.1875 7.4375 2.3625 7.4375 2.625V6.78125L9.8875 8.4C10.1063 8.53125 10.15 8.79375 10.0188 9.0125C9.8875 9.1 9.75625 9.1875 9.625 9.1875Z" fill="#006241"/>
<path d="M7 14C3.15 14 0 10.85 0 7C0 3.15 3.15 0 7 0C10.85 0 14 3.15 14 7C14 10.85 10.85 14 7 14ZM7 0.875C3.63125 0.875 0.875 3.63125 0.875 7C0.875 10.3688 3.63125 13.125 7 13.125C10.3688 13.125 13.125 10.3688 13.125 7C13.125 3.63125 10.3688 0.875 7 0.875Z" fill="#006241"/>
</svg>