<svg height="20" viewBox="0 0 20 20" width="20" xmlns="http://www.w3.org/2000/svg"><g fill="#fff"><path d="m19.21 6.11c.53 1.23.79 2.54.79 3.89s-.26 2.66-.79 3.89c-.75 1.79-2 3.31-3.62 4.4-1.65 1.12-3.59 1.71-5.59 1.71-1.35 0-2.66-.26-3.89-.79-1.19-.5-2.26-1.22-3.18-2.14s-1.64-1.99-2.14-3.18c-.53-1.23-.79-2.54-.79-3.89s.26-2.66.79-3.89c.75-1.79 2-3.31 3.62-4.4 1.65-1.12 3.59-1.71 5.59-1.71 1.35 0 2.66.26 3.89.79 1.19.5 2.26 1.22 3.18 2.14s1.64 1.99 2.14 3.18zm-.61 7.52c.49-1.15.74-2.37.74-3.63 0-5.15-4.19-9.34-9.34-9.34-3.76 0-7.14 2.24-8.6 5.71-.49 1.15-.74 2.37-.74 3.63 0 5.15 4.19 9.34 9.34 9.34 3.76 0 7.14-2.24 8.6-5.71z"/><path d="m11.03 9.34 3.87-4.55h-.93l-3.36 3.95-2.72-3.95h-2.96l4.03 5.9-3.86 4.52h.94l3.33-3.92 2.68 3.92h3.02zm-1.22 1.43-.41-.6-3.22-4.72h1.36l2.63 3.81.42.6 3.23 4.69h-1.43z"/></g></svg>